<?xml version="1.0" encoding="utf-8"?>
<!-- Generator: Adobe Illustrator 27.1.0, SVG Export Plug-In . SVG Version: 6.00 Build 0)  -->
<svg version="1.1" id="Layer_1" xmlns="http://www.w3.org/2000/svg" xmlns:xlink="http://www.w3.org/1999/xlink" x="0px" y="0px"
	 viewBox="0 0 569.42 569.42" style="enable-background:new 0 0 569.42 569.42;" xml:space="preserve">
<style type="text/css">
	.st0{fill:#FFFFFF;}
</style>
<g>
	<path class="st0" d="M127.31,291.49c1.11,6.89,2.66,13.79,5.11,20.45c16.22,1.56,32.45,0.67,48.69,0.44
		c0.22-6.89-0.22-13.56-1.34-20.46C162.43,290.16,144.87,291.28,127.31,291.49z"/>
	<path class="st0" d="M138.86,337.29c0.89,6.23,2.45,12.46,4.67,18.46c13.56,0.45,27.12,0.22,40.69,0c0.22-6-0.21-12.23-1.56-18.23
		C167.99,337.07,153.53,337.29,138.86,337.29z"/>
	<path class="st0" d="M177.99,267.04c0.22-7.79-0.44-15.35-1.11-22.9c-20.46-1.33-40.9-0.44-61.59-0.67c1.33,8,3.11,16.01,6,23.35
		C140.19,267.26,159.09,267.04,177.99,267.04z"/>
	<path class="st0" d="M261.81,266.6c0.66-7.56,1.33-15.34,1.33-22.9c-20.46-0.44-40.91-0.22-61.37-0.22
		c-0.44,7.78,0,15.78,1.56,23.35C222.9,267.04,242.25,267.26,261.81,266.6z"/>
	<path class="st0" d="M285.44,55.55c-134.39,0-243.33,108.94-243.33,243.33c0,134.39,108.94,243.33,243.33,243.33
		c134.39,0,243.33-108.94,243.33-243.33C528.77,164.49,419.82,55.55,285.44,55.55z M96.84,219.68
		c88.04-0.89,175.87-0.22,263.92-0.45c8.89-1.11,16.01,8.67,12.67,16.9c-12.01,45.13-23.36,90.27-35.58,135.4
		c-1.33,6.89-8.44,9.56-14.67,9.12c-62.25,0-124.5,0-186.76,0c-6.45,0.44-13.34-3.34-14.45-10.23
		c-11.56-44.24-22.46-88.94-33.8-133.18C85.5,230.35,88.61,220.35,96.84,219.68z M173.54,480.26c-14.45,3.11-30.02-7.12-33.35-21.57
		c-4-14.01,5.33-29.8,19.13-34.25c15.34-5.99,34.01,4.89,37.13,20.9C200.45,460.69,189.11,477.59,173.54,480.26z M311.83,480.7
		c-16.68,0.22-31.57-16.45-28.45-33.13c1.32-11.79,11.11-21.57,22.45-24.02c16.68-4.44,34.46,9.79,34.9,26.68
		C341.85,466.25,327.84,481.15,311.83,480.7z M475.92,227.02c-20.23,2.22-40.91-0.45-61.14,1.33
		c-16.46,58.47-32.24,116.94-48.25,175.64c-1.33,6.89-7.77,12.01-14.88,11.12c-78.27-0.22-156.31,0.22-234.57-0.22
		c-15.12,0.44-15.78-24.02-0.44-24.24c76.04-0.67,152.08,0.45,228.11-0.44c17.34-58.91,32.24-118.72,49.14-177.87
		c1.33-4.89,5.99-8.89,11.34-8.45c22.89-0.22,45.8-0.44,68.7,0C485.7,205,487.26,223.68,475.92,227.02z"/>
	<path class="st0" d="M326.95,312.17c4.89-5.11,4.67-14.01,6.45-20.89c-16.23,0-32.46-0.68-48.46,0.22
		c-1.11,7.11-1.56,14.01-0.9,21.12C298.27,312.62,312.72,313.06,326.95,312.17z"/>
	<path class="st0" d="M316.94,355.52c2.23-6,3.56-12.01,4.9-18.01c-13.34-0.23-26.68-0.44-40.23,0c-0.68,6-0.9,12.23-0.46,18.45
		C293.16,355.97,305.17,356.42,316.94,355.52z"/>
	<path class="st0" d="M204.89,291.49c-0.23,6.89,0.22,13.79,1.12,20.45c17.56,0.89,35.57,2,52.91-0.67
		c0.89-6.22,1.11-12.67,1.11-19.12C241.8,289.93,223.12,291.28,204.89,291.49z"/>
	<path class="st0" d="M339.85,266.82c2.89-7.57,4.67-15.34,6-23.12c-19.34-0.44-38.69-0.44-57.8,0c-0.45,7.56-2.89,16-0.45,23.12
		C304.95,267.04,322.51,267.26,339.85,266.82z"/>
	<path class="st0" d="M208,337.29c-0.22,6.23,0,12.46,1.55,18.46c15.36,0.22,30.68,0.22,46.03,0.22c0.44-6,2.89-13.12,0.23-18.45
		C240.02,337.07,223.79,337.29,208,337.29z"/>
</g>
</svg>
